<?xml version="1.0" standalone="no"?>
<!DOCTYPE svg PUBLIC "-//W3C//DTD SVG 20010904//EN"
 "http://www.w3.org/TR/2001/REC-SVG-20010904/DTD/svg10.dtd">
<svg version="1.0" xmlns="http://www.w3.org/2000/svg"
 width="300.000000pt" height="300.000000pt" viewBox="0 0 300.000000 300.000000"
 preserveAspectRatio="xMidYMid meet">

<g transform="translate(0.000000,300.000000) scale(0.100000,-0.100000)"
fill="#000000" stroke="none">
<path d="M1364 2839 c-419 -46 -747 -237 -995 -579 -85 -117 -172 -325 -206
-495 -121 -590 173 -1196 709 -1463 207 -103 372 -142 604 -142 288 0 527 72
760 229 92 62 214 166 214 182 0 5 -70 9 -161 9 -144 0 -164 -2 -189 -20 -49
-35 -203 -107 -285 -133 -132 -41 -207 -50 -381 -44 -140 4 -171 9 -259 35
-191 59 -325 135 -461 264 -234 221 -356 502 -356 818 0 304 109 568 324 788
162 165 362 272 593 317 72 14 120 17 245 12 191 -7 309 -36 458 -111 223
-112 399 -291 514 -521 99 -197 146 -474 111 -647 -44 -216 -201 -356 -326
-291 -53 27 -127 95 -154 141 -55 94 -66 164 -71 445 -2 141 0 257 5 257 10 0
87 -51 200 -132 44 -32 85 -58 91 -58 11 0 92 102 92 117 0 6 -19 23 -42 38
-24 16 -235 162 -470 327 -235 164 -429 298 -432 298 -5 0 -1005 -637 -1022
-651 -10 -8 -5 -23 24 -70 20 -32 42 -59 49 -59 11 0 228 132 323 196 19 13
38 24 42 24 5 0 8 -245 8 -545 l0 -545 565 0 565 0 0 53 c0 30 2 56 5 59 3 3
19 -7 36 -23 16 -15 59 -37 96 -50 212 -70 466 61 579 300 31 66 38 94 51 215
15 127 15 150 0 270 -65 517 -409 948 -893 1115 -174 60 -397 88 -560 70z
m344 -695 c250 -174 241 -168 242 -176 0 -5 -216 -8 -480 -8 -264 0 -480 3
-480 8 1 13 494 321 508 317 7 -3 101 -66 210 -141z m117 -749 l0 -340 -342
-3 -343 -2 0 345 0 345 343 -2 342 -3 0 -340z"/>
</g>
</svg>
